%TF.GenerationSoftware,KiCad,Pcbnew,9.0.2*%
%TF.CreationDate,2025-07-06T13:36:05-04:00*%
%TF.ProjectId,Fidget!!!,46696467-6574-4212-9121-2e6b69636164,rev?*%
%TF.SameCoordinates,Original*%
%TF.FileFunction,Copper,L1,Top*%
%TF.FilePolarity,Positive*%
%FSLAX46Y46*%
G04 Gerber Fmt 4.6, Leading zero omitted, Abs format (unit mm)*
G04 Created by KiCad (PCBNEW 9.0.2) date 2025-07-06 13:36:05*
%MOMM*%
%LPD*%
G01*
G04 APERTURE LIST*
G04 Aperture macros list*
%AMRoundRect*
0 Rectangle with rounded corners*
0 $1 Rounding radius*
0 $2 $3 $4 $5 $6 $7 $8 $9 X,Y pos of 4 corners*
0 Add a 4 corners polygon primitive as box body*
4,1,4,$2,$3,$4,$5,$6,$7,$8,$9,$2,$3,0*
0 Add four circle primitives for the rounded corners*
1,1,$1+$1,$2,$3*
1,1,$1+$1,$4,$5*
1,1,$1+$1,$6,$7*
1,1,$1+$1,$8,$9*
0 Add four rect primitives between the rounded corners*
20,1,$1+$1,$2,$3,$4,$5,0*
20,1,$1+$1,$4,$5,$6,$7,0*
20,1,$1+$1,$6,$7,$8,$9,0*
20,1,$1+$1,$8,$9,$2,$3,0*%
G04 Aperture macros list end*
%TA.AperFunction,SMDPad,CuDef*%
%ADD10RoundRect,0.152400X1.063600X0.609600X-1.063600X0.609600X-1.063600X-0.609600X1.063600X-0.609600X0*%
%TD*%
%TA.AperFunction,ComponentPad*%
%ADD11C,1.524000*%
%TD*%
%TA.AperFunction,SMDPad,CuDef*%
%ADD12RoundRect,0.152400X-1.063600X-0.609600X1.063600X-0.609600X1.063600X0.609600X-1.063600X0.609600X0*%
%TD*%
%TA.AperFunction,ComponentPad*%
%ADD13C,2.200000*%
%TD*%
%TA.AperFunction,ComponentPad*%
%ADD14C,1.400000*%
%TD*%
%TA.AperFunction,ComponentPad*%
%ADD15R,1.815000X1.815000*%
%TD*%
%TA.AperFunction,ComponentPad*%
%ADD16C,1.815000*%
%TD*%
%TA.AperFunction,ViaPad*%
%ADD17C,0.600000*%
%TD*%
%TA.AperFunction,Conductor*%
%ADD18C,0.200000*%
%TD*%
G04 APERTURE END LIST*
D10*
%TO.P,U1,1,GPIO26/ADC0/A0*%
%TO.N,button1*%
X69545000Y-20880000D03*
D11*
X70380000Y-20880000D03*
D10*
%TO.P,U1,2,GPIO27/ADC1/A1*%
%TO.N,button2*%
X69545000Y-23420000D03*
D11*
X70380000Y-23420000D03*
D10*
%TO.P,U1,3,GPIO28/ADC2/A2*%
%TO.N,button3*%
X69545000Y-25960000D03*
D11*
X70380000Y-25960000D03*
D10*
%TO.P,U1,4,GPIO29/ADC3/A3*%
%TO.N,led1*%
X69545000Y-28500000D03*
D11*
X70380000Y-28500000D03*
D10*
%TO.P,U1,5,GPIO6/SDA*%
%TO.N,led2*%
X69545000Y-31040000D03*
D11*
X70380000Y-31040000D03*
D10*
%TO.P,U1,6,GPIO7/SCL*%
%TO.N,led3*%
X69545000Y-33580000D03*
D11*
X70380000Y-33580000D03*
D10*
%TO.P,U1,7,GPIO0/TX*%
%TO.N,unconnected-(U1-GPIO0{slash}TX-Pad7)*%
X69545000Y-36120000D03*
D11*
X70380000Y-36120000D03*
%TO.P,U1,8,GPIO1/RX*%
%TO.N,unconnected-(U1-GPIO1{slash}RX-Pad8)*%
X85620000Y-36120000D03*
D12*
X86455000Y-36120000D03*
D11*
%TO.P,U1,9,GPIO2/SCK*%
%TO.N,unconnected-(U1-GPIO2{slash}SCK-Pad9)*%
X85620000Y-33580000D03*
D12*
X86455000Y-33580000D03*
D11*
%TO.P,U1,10,GPIO4/MISO*%
%TO.N,unconnected-(U1-GPIO4{slash}MISO-Pad10)*%
X85620000Y-31040000D03*
D12*
X86455000Y-31040000D03*
D11*
%TO.P,U1,11,GPIO3/MOSI*%
%TO.N,unconnected-(U1-GPIO3{slash}MOSI-Pad11)*%
X85620000Y-28500000D03*
D12*
X86455000Y-28500000D03*
D11*
%TO.P,U1,12,3V3*%
%TO.N,unconnected-(U1-3V3-Pad12)*%
X85620000Y-25960000D03*
D12*
X86455000Y-25960000D03*
D11*
%TO.P,U1,13,GND*%
%TO.N,GND*%
X85620000Y-23420000D03*
D12*
X86455000Y-23420000D03*
D11*
%TO.P,U1,14,VBUS*%
%TO.N,unconnected-(U1-VBUS-Pad14)*%
X85620000Y-20880000D03*
D12*
X86455000Y-20880000D03*
%TD*%
D13*
%TO.P,SW3,1,1*%
%TO.N,button3*%
X58120000Y-72010000D03*
%TO.P,SW3,2,2*%
%TO.N,GND*%
X51770000Y-74550000D03*
%TD*%
%TO.P,SW2,1,1*%
%TO.N,button2*%
X58120000Y-56920000D03*
%TO.P,SW2,2,2*%
%TO.N,GND*%
X51770000Y-59460000D03*
%TD*%
%TO.P,SW1,1,1*%
%TO.N,button1*%
X58120000Y-41830000D03*
%TO.P,SW1,2,2*%
%TO.N,GND*%
X51770000Y-44370000D03*
%TD*%
D14*
%TO.P,R3,1*%
%TO.N,Net-(D3-PadA)*%
X64700000Y-70730000D03*
%TO.P,R3,2*%
%TO.N,led3*%
X66600000Y-70730000D03*
%TD*%
%TO.P,R2,1*%
%TO.N,Net-(D2-PadA)*%
X64700000Y-67580000D03*
%TO.P,R2,2*%
%TO.N,led2*%
X66600000Y-67580000D03*
%TD*%
%TO.P,R1,1*%
%TO.N,Net-(D1-PadA)*%
X64700000Y-64430000D03*
%TO.P,R1,2*%
%TO.N,led1*%
X66600000Y-64430000D03*
%TD*%
D15*
%TO.P,D3,C*%
%TO.N,GND*%
X73230000Y-78000000D03*
D16*
%TO.P,D3,A*%
%TO.N,Net-(D3-PadA)*%
X75770000Y-78000000D03*
%TD*%
D15*
%TO.P,D2,C*%
%TO.N,GND*%
X72730000Y-61500000D03*
D16*
%TO.P,D2,A*%
%TO.N,Net-(D2-PadA)*%
X75270000Y-61500000D03*
%TD*%
D15*
%TO.P,D1,C*%
%TO.N,GND*%
X72730000Y-46000000D03*
D16*
%TO.P,D1,A*%
%TO.N,Net-(D1-PadA)*%
X75270000Y-46000000D03*
%TD*%
D17*
%TO.N,GND*%
X79100000Y-40000000D03*
X81000000Y-32000000D03*
%TO.N,led3*%
X70380000Y-33580000D03*
X79100000Y-44500000D03*
%TO.N,led2*%
X78500000Y-37500000D03*
X70380000Y-31040000D03*
%TD*%
D18*
%TO.N,GND*%
X73938500Y-44791500D02*
X72730000Y-46000000D01*
X76080078Y-45101000D02*
X75770578Y-44791500D01*
X79348943Y-45101000D02*
X76080078Y-45101000D01*
X79701000Y-44748943D02*
X79348943Y-45101000D01*
X79701000Y-40601000D02*
X79701000Y-44748943D01*
X79100000Y-40000000D02*
X79701000Y-40601000D01*
X75770578Y-44791500D02*
X73938500Y-44791500D01*
X81000000Y-28040000D02*
X81000000Y-32000000D01*
X85620000Y-23420000D02*
X81000000Y-28040000D01*
%TO.N,led3*%
X79100000Y-42300000D02*
X70380000Y-33580000D01*
X79100000Y-44500000D02*
X79100000Y-42300000D01*
%TO.N,led2*%
X72040000Y-31040000D02*
X70380000Y-31040000D01*
X78500000Y-37500000D02*
X72040000Y-31040000D01*
%TO.N,button2*%
X91000000Y-44040000D02*
X70380000Y-23420000D01*
X89500000Y-53000000D02*
X91000000Y-51500000D01*
X67580000Y-56920000D02*
X71500000Y-53000000D01*
X91000000Y-51500000D02*
X91000000Y-44040000D01*
X71500000Y-53000000D02*
X89500000Y-53000000D01*
X58120000Y-56920000D02*
X67580000Y-56920000D01*
%TO.N,button1*%
X69302370Y-20880000D02*
X70380000Y-20880000D01*
X58120000Y-32062370D02*
X69302370Y-20880000D01*
X58120000Y-41830000D02*
X58120000Y-32062370D01*
%TO.N,GND*%
X69780000Y-74550000D02*
X73230000Y-78000000D01*
X51770000Y-74550000D02*
X69780000Y-74550000D01*
X70690000Y-59460000D02*
X72730000Y-61500000D01*
X51770000Y-59460000D02*
X70690000Y-59460000D01*
X51770000Y-59460000D02*
X51770000Y-74550000D01*
X51770000Y-44370000D02*
X51770000Y-59460000D01*
X71100000Y-44370000D02*
X72730000Y-46000000D01*
X51770000Y-44370000D02*
X71100000Y-44370000D01*
%TD*%
M02*
