%TF.GenerationSoftware,KiCad,Pcbnew,9.0.2*%
%TF.CreationDate,2025-07-06T13:36:05-04:00*%
%TF.ProjectId,Fidget!!!,46696467-6574-4212-9121-2e6b69636164,rev?*%
%TF.SameCoordinates,Original*%
%TF.FileFunction,Copper,L2,Bot*%
%TF.FilePolarity,Positive*%
%FSLAX46Y46*%
G04 Gerber Fmt 4.6, Leading zero omitted, Abs format (unit mm)*
G04 Created by KiCad (PCBNEW 9.0.2) date 2025-07-06 13:36:05*
%MOMM*%
%LPD*%
G01*
G04 APERTURE LIST*
%TA.AperFunction,ComponentPad*%
%ADD10C,1.524000*%
%TD*%
%TA.AperFunction,ComponentPad*%
%ADD11C,2.200000*%
%TD*%
%TA.AperFunction,ComponentPad*%
%ADD12C,1.400000*%
%TD*%
%TA.AperFunction,ComponentPad*%
%ADD13R,1.815000X1.815000*%
%TD*%
%TA.AperFunction,ComponentPad*%
%ADD14C,1.815000*%
%TD*%
%TA.AperFunction,ViaPad*%
%ADD15C,0.600000*%
%TD*%
%TA.AperFunction,Conductor*%
%ADD16C,0.200000*%
%TD*%
G04 APERTURE END LIST*
D10*
%TO.P,U1,1,GPIO26/ADC0/A0*%
%TO.N,button1*%
X70380000Y-20880000D03*
%TO.P,U1,2,GPIO27/ADC1/A1*%
%TO.N,button2*%
X70380000Y-23420000D03*
%TO.P,U1,3,GPIO28/ADC2/A2*%
%TO.N,button3*%
X70380000Y-25960000D03*
%TO.P,U1,4,GPIO29/ADC3/A3*%
%TO.N,led1*%
X70380000Y-28500000D03*
%TO.P,U1,5,GPIO6/SDA*%
%TO.N,led2*%
X70380000Y-31040000D03*
%TO.P,U1,6,GPIO7/SCL*%
%TO.N,led3*%
X70380000Y-33580000D03*
%TO.P,U1,7,GPIO0/TX*%
%TO.N,unconnected-(U1-GPIO0{slash}TX-Pad7)*%
X70380000Y-36120000D03*
%TO.P,U1,8,GPIO1/RX*%
%TO.N,unconnected-(U1-GPIO1{slash}RX-Pad8)*%
X85620000Y-36120000D03*
%TO.P,U1,9,GPIO2/SCK*%
%TO.N,unconnected-(U1-GPIO2{slash}SCK-Pad9)*%
X85620000Y-33580000D03*
%TO.P,U1,10,GPIO4/MISO*%
%TO.N,unconnected-(U1-GPIO4{slash}MISO-Pad10)*%
X85620000Y-31040000D03*
%TO.P,U1,11,GPIO3/MOSI*%
%TO.N,unconnected-(U1-GPIO3{slash}MOSI-Pad11)*%
X85620000Y-28500000D03*
%TO.P,U1,12,3V3*%
%TO.N,unconnected-(U1-3V3-Pad12)*%
X85620000Y-25960000D03*
%TO.P,U1,13,GND*%
%TO.N,GND*%
X85620000Y-23420000D03*
%TO.P,U1,14,VBUS*%
%TO.N,unconnected-(U1-VBUS-Pad14)*%
X85620000Y-20880000D03*
%TD*%
D11*
%TO.P,SW3,1,1*%
%TO.N,button3*%
X58120000Y-72010000D03*
%TO.P,SW3,2,2*%
%TO.N,GND*%
X51770000Y-74550000D03*
%TD*%
%TO.P,SW2,1,1*%
%TO.N,button2*%
X58120000Y-56920000D03*
%TO.P,SW2,2,2*%
%TO.N,GND*%
X51770000Y-59460000D03*
%TD*%
%TO.P,SW1,1,1*%
%TO.N,button1*%
X58120000Y-41830000D03*
%TO.P,SW1,2,2*%
%TO.N,GND*%
X51770000Y-44370000D03*
%TD*%
D12*
%TO.P,R3,1*%
%TO.N,Net-(D3-PadA)*%
X64700000Y-70730000D03*
%TO.P,R3,2*%
%TO.N,led3*%
X66600000Y-70730000D03*
%TD*%
%TO.P,R2,1*%
%TO.N,Net-(D2-PadA)*%
X64700000Y-67580000D03*
%TO.P,R2,2*%
%TO.N,led2*%
X66600000Y-67580000D03*
%TD*%
%TO.P,R1,1*%
%TO.N,Net-(D1-PadA)*%
X64700000Y-64430000D03*
%TO.P,R1,2*%
%TO.N,led1*%
X66600000Y-64430000D03*
%TD*%
D13*
%TO.P,D3,C*%
%TO.N,GND*%
X73230000Y-78000000D03*
D14*
%TO.P,D3,A*%
%TO.N,Net-(D3-PadA)*%
X75770000Y-78000000D03*
%TD*%
D13*
%TO.P,D2,C*%
%TO.N,GND*%
X72730000Y-61500000D03*
D14*
%TO.P,D2,A*%
%TO.N,Net-(D2-PadA)*%
X75270000Y-61500000D03*
%TD*%
D13*
%TO.P,D1,C*%
%TO.N,GND*%
X72730000Y-46000000D03*
D14*
%TO.P,D1,A*%
%TO.N,Net-(D1-PadA)*%
X75270000Y-46000000D03*
%TD*%
D15*
%TO.N,GND*%
X79100000Y-40000000D03*
X81000000Y-32000000D03*
%TO.N,led3*%
X70380000Y-33580000D03*
X79100000Y-44500000D03*
%TO.N,led2*%
X78500000Y-37500000D03*
X70380000Y-31040000D03*
%TD*%
D16*
%TO.N,GND*%
X81000000Y-32000000D02*
X79100000Y-33900000D01*
X79100000Y-33900000D02*
X79100000Y-40000000D01*
%TO.N,led3*%
X79100000Y-44600000D02*
X79100000Y-44500000D01*
X81000000Y-46500000D02*
X80000000Y-45500000D01*
X81000000Y-55000000D02*
X81000000Y-48500000D01*
X84000000Y-58000000D02*
X81000000Y-55000000D01*
X80000000Y-45500000D02*
X79100000Y-44600000D01*
X71270000Y-70730000D02*
X84000000Y-58000000D01*
X81000000Y-48500000D02*
X81000000Y-46500000D01*
X66600000Y-70730000D02*
X71270000Y-70730000D01*
%TO.N,led2*%
X78500000Y-59979078D02*
X78500000Y-37500000D01*
X70899078Y-67580000D02*
X78500000Y-59979078D01*
X66600000Y-67580000D02*
X70899078Y-67580000D01*
%TO.N,led1*%
X76478500Y-34598500D02*
X70380000Y-28500000D01*
X76478500Y-54551500D02*
X76478500Y-34598500D01*
X66600000Y-64430000D02*
X76478500Y-54551500D01*
%TO.N,Net-(D3-PadA)*%
X69501000Y-71731000D02*
X75770000Y-78000000D01*
X65701000Y-71731000D02*
X69501000Y-71731000D01*
X64700000Y-70730000D02*
X65701000Y-71731000D01*
%TO.N,Net-(D2-PadA)*%
X69737128Y-62708500D02*
X74061500Y-62708500D01*
X74061500Y-62708500D02*
X75270000Y-61500000D01*
X64865628Y-67580000D02*
X69737128Y-62708500D01*
X64700000Y-67580000D02*
X64865628Y-67580000D01*
%TO.N,Net-(D1-PadA)*%
X75270000Y-53860000D02*
X75270000Y-46000000D01*
X64700000Y-64430000D02*
X75270000Y-53860000D01*
%TO.N,button3*%
X69317000Y-27023000D02*
X70380000Y-25960000D01*
X58120000Y-69594372D02*
X69317000Y-58397372D01*
X69317000Y-58397372D02*
X69317000Y-27023000D01*
X58120000Y-72010000D02*
X58120000Y-69594372D01*
%TD*%
M02*
