%TF.GenerationSoftware,KiCad,Pcbnew,9.0.2*%
%TF.CreationDate,2025-07-06T13:36:05-04:00*%
%TF.ProjectId,Fidget!!!,46696467-6574-4212-9121-2e6b69636164,rev?*%
%TF.SameCoordinates,Original*%
%TF.FileFunction,Soldermask,Top*%
%TF.FilePolarity,Negative*%
%FSLAX46Y46*%
G04 Gerber Fmt 4.6, Leading zero omitted, Abs format (unit mm)*
G04 Created by KiCad (PCBNEW 9.0.2) date 2025-07-06 13:36:05*
%MOMM*%
%LPD*%
G01*
G04 APERTURE LIST*
G04 Aperture macros list*
%AMRoundRect*
0 Rectangle with rounded corners*
0 $1 Rounding radius*
0 $2 $3 $4 $5 $6 $7 $8 $9 X,Y pos of 4 corners*
0 Add a 4 corners polygon primitive as box body*
4,1,4,$2,$3,$4,$5,$6,$7,$8,$9,$2,$3,0*
0 Add four circle primitives for the rounded corners*
1,1,$1+$1,$2,$3*
1,1,$1+$1,$4,$5*
1,1,$1+$1,$6,$7*
1,1,$1+$1,$8,$9*
0 Add four rect primitives between the rounded corners*
20,1,$1+$1,$2,$3,$4,$5,0*
20,1,$1+$1,$4,$5,$6,$7,0*
20,1,$1+$1,$6,$7,$8,$9,0*
20,1,$1+$1,$8,$9,$2,$3,0*%
G04 Aperture macros list end*
%ADD10RoundRect,0.152400X1.063600X0.609600X-1.063600X0.609600X-1.063600X-0.609600X1.063600X-0.609600X0*%
%ADD11C,1.524000*%
%ADD12RoundRect,0.152400X-1.063600X-0.609600X1.063600X-0.609600X1.063600X0.609600X-1.063600X0.609600X0*%
%ADD13C,1.700000*%
%ADD14C,4.000000*%
%ADD15C,2.200000*%
%ADD16C,1.400000*%
%ADD17RoundRect,0.102000X-0.907500X-0.907500X0.907500X-0.907500X0.907500X0.907500X-0.907500X0.907500X0*%
%ADD18C,2.019000*%
G04 APERTURE END LIST*
D10*
%TO.C,U1*%
X69545000Y-20880000D03*
D11*
X70380000Y-20880000D03*
D10*
X69545000Y-23420000D03*
D11*
X70380000Y-23420000D03*
D10*
X69545000Y-25960000D03*
D11*
X70380000Y-25960000D03*
D10*
X69545000Y-28500000D03*
D11*
X70380000Y-28500000D03*
D10*
X69545000Y-31040000D03*
D11*
X70380000Y-31040000D03*
D10*
X69545000Y-33580000D03*
D11*
X70380000Y-33580000D03*
D10*
X69545000Y-36120000D03*
D11*
X70380000Y-36120000D03*
X85620000Y-36120000D03*
D12*
X86455000Y-36120000D03*
D11*
X85620000Y-33580000D03*
D12*
X86455000Y-33580000D03*
D11*
X85620000Y-31040000D03*
D12*
X86455000Y-31040000D03*
D11*
X85620000Y-28500000D03*
D12*
X86455000Y-28500000D03*
D11*
X85620000Y-25960000D03*
D12*
X86455000Y-25960000D03*
D11*
X85620000Y-23420000D03*
D12*
X86455000Y-23420000D03*
D11*
X85620000Y-20880000D03*
D12*
X86455000Y-20880000D03*
%TD*%
D13*
%TO.C,SW3*%
X50500000Y-77090000D03*
D14*
X55580000Y-77090000D03*
D13*
X60660000Y-77090000D03*
D15*
X58120000Y-72010000D03*
X51770000Y-74550000D03*
%TD*%
D13*
%TO.C,SW2*%
X50500000Y-62000000D03*
D14*
X55580000Y-62000000D03*
D13*
X60660000Y-62000000D03*
D15*
X58120000Y-56920000D03*
X51770000Y-59460000D03*
%TD*%
D13*
%TO.C,SW1*%
X50500000Y-46910000D03*
D14*
X55580000Y-46910000D03*
D13*
X60660000Y-46910000D03*
D15*
X58120000Y-41830000D03*
X51770000Y-44370000D03*
%TD*%
D16*
%TO.C,R3*%
X64700000Y-70730000D03*
X66600000Y-70730000D03*
%TD*%
%TO.C,R2*%
X64700000Y-67580000D03*
X66600000Y-67580000D03*
%TD*%
%TO.C,R1*%
X64700000Y-64430000D03*
X66600000Y-64430000D03*
%TD*%
D17*
%TO.C,D3*%
X73230000Y-78000000D03*
D18*
X75770000Y-78000000D03*
%TD*%
D17*
%TO.C,D2*%
X72730000Y-61500000D03*
D18*
X75270000Y-61500000D03*
%TD*%
D17*
%TO.C,D1*%
X72730000Y-46000000D03*
D18*
X75270000Y-46000000D03*
%TD*%
M02*
